# xmcd
#
# Track frame offsets:
#	150
#	18682
#	36998
#	51346
#	62725
#	75183
#	90611
#	104743
#	122897
#	137029
#	149946
#	165590
#	183852
#	202222
#	215517
#	231485
#	249477
#	258426
#	275905
#	286285
#	299715
#
# Disc length: 4175 seconds
#
# Revision: 1
# Processed by: cddbd v1.4PL0 Copyright (c) Steve Scherf et al.
# Submitted via: EasyCDDAExtractor 5.0.7
#
DISCID=5d104d15
DTITLE=Rolando Boldrim - O Melhor de Rolando Boldrin
DYEAR=1900
DGENRE=
TTITLE0=Vide vida marvada
TTITLE1=Seresta
TTITLE2=Mestre carreiro
TTITLE3=Carreiro bão
TTITLE4=Morena minha morena
TTITLE5=Deixei de ser carreiro
TTITLE6=Mágoas de um carreiro
TTITLE7=Chico Mulato
TTITLE8=Minas Gerais
TTITLE9=Que linda morena
TTITLE10=Piracicaba
TTITLE11=João Carreiro
TTITLE12=Cavalo zaino
TTITLE13=Boiadeiro apaixonado
TTITLE14=Tema para Juliana
TTITLE15=Eu, a viola e meu Deus
TTITLE16=Faca de ponta
TTITLE17=Eta mundo
TTITLE18=Aquela flor
TTITLE19=Pitoco
TTITLE20=Futebol da bicharada
EXTD=
EXTT0=
EXTT1=
EXTT2=
EXTT3=
EXTT4=
EXTT5=
EXTT6=
EXTT7=
EXTT8=
EXTT9=
EXTT10=
EXTT11=
EXTT12=
EXTT13=
EXTT14=
EXTT15=
EXTT16=
EXTT17=
EXTT18=
EXTT19=
EXTT20=
PLAYORDER=
